<svg xmlns="http://www.w3.org/2000/svg" width="30" height="30" fill="none">
    <rect width="1.875" height="9.375" x="4.55" y="16.358" fill="url(#MenuPersonas_svg__a)" rx=".938" transform="rotate(-30 4.55 16.358)"/>
    <path fill="url(#MenuPersonas_svg__b)" fill-rule="evenodd" d="M17.043 16.18c-1.212.387-2.523.183-3.712-.556a.542.542 0 0 0-.463-.056.557.557 0 0 0-.353.329c-.533 1.276-1.495 2.206-2.707 2.593-1.938.619-4.14-.306-5.49-2.303a6.876 6.876 0 0 1-.855-1.762 8.457 8.457 0 0 1-.233-.93l-.208-1.167.968.683a.72.72 0 0 0 .631.104.93.93 0 0 0 .166-.079l.245-.268.015-.031.032-.06a5.317 5.317 0 0 1 2.824-2.148 5.305 5.305 0 0 1 3.358.046 5.305 5.305 0 0 1 2.71-1.984 5.342 5.342 0 0 1 3.547.114l.06.032c.046.023.103.043.16.063l.016.008c.126.036.264.03.402-.014a.7.7 0 0 0 .454-.45l.382-1.114.507 1.072c.146.297.253.593.349.893a6.83 6.83 0 0 1 .324 1.93c.08 2.404-1.19 4.437-3.129 5.056Zm-7.466-.73c-.162.051-.33.08-.503.097-.947.06-1.827-.587-2.233-.94.292-.322.873-.89 1.6-1.122.173-.055.33-.08.503-.097.947-.06 1.828.587 2.233.94-.303.326-.885.893-1.6 1.122Zm3.955-1.873c.424.093 1.238.215 1.954-.014a2.25 2.25 0 0 0 .466-.212c.795-.495 1.15-1.537 1.275-2.06-.424-.093-1.239-.215-1.954.014-.173.055-.327.13-.466.212-.796.495-1.15 1.537-1.275 2.06Z" clip-rule="evenodd"/>
    <g filter="url(#MenuPersonas_svg__c)">
        <path fill="url(#MenuPersonas_svg__d)" fill-opacity=".3" fill-rule="evenodd" d="m17.537 10.777.203-.34 9.573 3.16-.04.393a11.26 11.26 0 0 1-.543 2.55c-.665 1.992-1.804 3.701-3.2 4.813-1.044.827-2.17 1.26-3.24 1.26-.421 0-.828-.053-1.221-.189-1.41-.474-2.454-1.722-2.93-3.525-.46-1.722-.352-3.77.313-5.763.27-.84.637-1.627 1.084-2.36Zm1.22 5.6c.204.095.42.135.665.135.217 0 .46-.04.718-.108.277-.093.5-.208.598-.259a.408.408 0 0 1 .053-.026l.271-.163-.149-.284c-.013-.041-.447-.868-1.302-1.248-.854-.38-1.762-.135-1.803-.122l-.312.082.068.311a.478.478 0 0 1 .026.08c.034.116.102.347.218.598.244.489.57.841.95 1.004Zm4.217 1.437c.109.027.217.04.34.04a2.24 2.24 0 0 0 1.016-.27c.353-.177.583-.38.597-.394l.244-.217-.19-.257c-.027-.041-.61-.787-1.519-.99-.84-.188-1.623.146-1.767.208l-.023.009-.284.135.122.299c0 .013.122.312.352.623.326.434.706.72 1.112.814Z" clip-rule="evenodd"/>
    </g>
    <defs>
        <linearGradient id="MenuPersonas_svg__a" x1="4.55" x2="6.425" y1="25.733" y2="25.733" gradientUnits="userSpaceOnUse">
            <stop stop-color="#AFC3E1"/>
            <stop offset="1" stop-color="#C3D7F5"/>
        </linearGradient>
        <linearGradient id="MenuPersonas_svg__b" x1="3.665" x2="20.794" y1="19.161" y2="17.549" gradientUnits="userSpaceOnUse">
            <stop stop-color="#AFC3E1"/>
            <stop offset="1" stop-color="#C3D7F5"/>
        </linearGradient>
        <linearGradient id="MenuPersonas_svg__d" x1="15.859" x2="27.313" y1="22.614" y2="22.614" gradientUnits="userSpaceOnUse">
            <stop stop-color="#B0CFEB"/>
            <stop offset="1" stop-color="#C4E1FB"/>
        </linearGradient>
        <filter id="MenuPersonas_svg__c" width="19.454" height="20.177" x="11.859" y="6.438" color-interpolation-filters="sRGB" filterUnits="userSpaceOnUse">
            <feFlood flood-opacity="0" result="BackgroundImageFix"/>
            <feGaussianBlur in="BackgroundImage" stdDeviation="2"/>
            <feComposite in2="SourceAlpha" operator="in" result="effect1_backgroundBlur_1005_18929"/>
            <feBlend in="SourceGraphic" in2="effect1_backgroundBlur_1005_18929" result="shape"/>
        </filter>
    </defs>
</svg>
