<svg xmlns="http://www.w3.org/2000/svg" width="36" height="36" fill="none">
    <path fill="#F9F9FA" d="M0 18C0 8.059 8.059 0 18 0s18 8.059 18 18-8.059 18-18 18S0 27.941 0 18Z"/>
    <rect width="2.25" height="11.25" x="5.39" y="19.56" fill="#1C68F3" rx="1.125" transform="rotate(-30 5.39 19.56)"/>
    <path fill="url(#MenuPersonasActive_svg__a)" fill-rule="evenodd" d="M20.452 19.417c-1.454.464-3.028.218-4.455-.669a.65.65 0 0 0-.556-.066.668.668 0 0 0-.423.394c-.64 1.532-1.794 2.648-3.248 3.112-2.326.742-4.97-.367-6.589-2.764a8.251 8.251 0 0 1-1.025-2.114 10.15 10.15 0 0 1-.28-1.116l-.25-1.4 1.163.819a.86.86 0 0 0 .756.125 1.14 1.14 0 0 0 .2-.095l.293-.322.019-.037.038-.073a6.38 6.38 0 0 1 3.388-2.577 6.366 6.366 0 0 1 4.03.056 6.366 6.366 0 0 1 3.253-2.38 6.41 6.41 0 0 1 4.255.136l.073.038c.055.028.124.052.192.076l.019.01a.83.83 0 0 0 .482-.017.84.84 0 0 0 .545-.54l.459-1.337.608 1.286c.175.356.304.712.419 1.072.243.761.37 1.544.388 2.317.097 2.883-1.428 5.323-3.754 6.066Zm-8.96-.878a2.926 2.926 0 0 1-.603.117c-1.137.073-2.193-.704-2.68-1.128.35-.387 1.048-1.067 1.92-1.346a2.81 2.81 0 0 1 .604-.116c1.137-.073 2.193.704 2.68 1.128-.364.39-1.062 1.071-1.92 1.345Zm4.746-2.247c.51.112 1.486.258 2.345-.016a2.7 2.7 0 0 0 .56-.255c.954-.594 1.379-1.844 1.53-2.472-.51-.112-1.487-.258-2.345.016a2.704 2.704 0 0 0-.56.255c-.954.595-1.38 1.844-1.53 2.472Z" clip-rule="evenodd"/>
    <g filter="url(#MenuPersonasActive_svg__b)">
        <path fill="#1C68F3" fill-opacity=".1" fill-rule="evenodd" d="m21.044 12.932.244-.407 11.488 3.791-.05.472a13.516 13.516 0 0 1-.65 3.06c-.797 2.391-2.164 4.441-3.84 5.776-1.253.992-2.604 1.513-3.89 1.513-.503 0-.992-.065-1.463-.228-1.693-.57-2.946-2.066-3.515-4.23-.553-2.067-.423-4.524.374-6.916a13.18 13.18 0 0 1 1.302-2.831Zm1.465 6.72c.244.114.504.163.797.163.26 0 .553-.049.862-.13.333-.111.6-.25.717-.31a.5.5 0 0 1 .064-.032l.326-.195-.18-.342c-.015-.049-.536-1.041-1.561-1.497-1.025-.455-2.115-.163-2.164-.146l-.375.097.082.375c.004.004.014.038.031.095.041.14.122.416.262.718.293.586.683 1.009 1.139 1.204Zm5.06 1.725c.13.033.26.049.407.049.39 0 .814-.114 1.22-.326.423-.211.7-.455.716-.472l.293-.26-.228-.309c-.032-.049-.732-.944-1.822-1.188-1.01-.226-1.949.176-2.122.25a.1.1 0 0 1-.026.01l-.342.163.147.358c0 .017.146.374.423.749.39.52.846.862 1.334.976Z" clip-rule="evenodd"/>
    </g>
    <defs>
        <linearGradient id="MenuPersonasActive_svg__a" x1="3.896" x2="23.707" y1="16.306" y2="9.927" gradientUnits="userSpaceOnUse">
            <stop stop-color="#1C68F3"/>
            <stop offset="1" stop-color="#6CB8FF"/>
        </linearGradient>
        <filter id="MenuPersonasActive_svg__b" width="21.745" height="22.612" x="15.031" y="8.525" color-interpolation-filters="sRGB" filterUnits="userSpaceOnUse">
            <feFlood flood-opacity="0" result="BackgroundImageFix"/>
            <feGaussianBlur in="BackgroundImage" stdDeviation="2"/>
            <feComposite in2="SourceAlpha" operator="in" result="effect1_backgroundBlur_1005_26305"/>
            <feBlend in="SourceGraphic" in2="effect1_backgroundBlur_1005_26305" result="shape"/>
        </filter>
    </defs>
</svg>
