<svg xmlns="http://www.w3.org/2000/svg" width="24" height="24">
    <path fill="url(#MenuSettingsActive_svg__a)" fill-rule="evenodd" d="M6 8a2 2 0 0 1 2-2h8a2 2 0 0 1 2 2v8a2 2 0 0 1-2 2H8a2 2 0 0 1-2-2V8zm9.5 1.5H10a.5.5 0 0 0 0 1h5.5a.5.5 0 0 0 0-1zm-1.5 4H8.5a.5.5 0 0 0 0 1H14a.5.5 0 0 0 0-1z" clip-rule="evenodd"/>
    <g filter="url(#MenuSettingsActive_svg__b)">
        <circle cx="9.5" cy="10" r="1.5" fill="#fff" fill-opacity=".1"/>
    </g>
    <g filter="url(#MenuSettingsActive_svg__c)">
        <circle cx="14.5" cy="14" r="1.5" fill="#fff" fill-opacity=".1"/>
    </g>
    <defs>
        <filter id="MenuSettingsActive_svg__b" width="11" height="11" x="4" y="4.5" color-interpolation-filters="sRGB">
            <feFlood flood-opacity="0" result="BackgroundImageFix"/>
            <feGaussianBlur in="BackgroundImage"/>
            <feComposite in2="SourceAlpha" operator="in" result="effect1_backgroundBlur"/>
            <feBlend in="SourceGraphic" in2="effect1_backgroundBlur" result="shape"/>
        </filter>
        <filter id="MenuSettingsActive_svg__c" width="11" height="11" x="9" y="8.5" color-interpolation-filters="sRGB">
            <feFlood flood-opacity="0" result="BackgroundImageFix"/>
            <feGaussianBlur in="BackgroundImage"/>
            <feComposite in2="SourceAlpha" operator="in" result="effect1_backgroundBlur"/>
            <feBlend in="SourceGraphic" in2="effect1_backgroundBlur" result="shape"/>
        </filter>
        <linearGradient id="MenuSettingsActive_svg__a" x1="6.073" x2="18.244" y1="11.579" y2="9.945">
            <stop stop-color="#1C68F3"/>
            <stop offset="1" stop-color="#6CB8FF"/>
        </linearGradient>
    </defs>
</svg>
