<svg xmlns="http://www.w3.org/2000/svg" width="30" height="30" fill="none">
    <path fill="#1C68F3" d="M23.75 16.88v-.23h.51a.115.115 0 0 1 0 .23h-.51Z" opacity=".8"/>
    <g filter="url(#MenuWallets_svg__a)">
        <path fill="url(#MenuWallets_svg__b)" fill-opacity=".3" d="M7.5 12.381C7.5 11.066 8.504 10 9.741 10H21.51c1.238 0 2.241 1.066 2.241 2.381v7.738c0 1.315-1.003 2.381-2.241 2.381H9.74c-1.237 0-2.241-1.066-2.241-2.381v-7.738Z"/>
    </g>
    <path fill="url(#MenuWallets_svg__c)" d="M18.044 15.714a5 5 0 1 1-5-8.66 5 5 0 0 1 5 8.66Z"/>
    <path fill="#fff" fill-rule="evenodd" d="m12.424 11.864.817 1.415 4.245-2.451.183-.106a2.223 2.223 0 0 1-3.36 2.506l-.823.475.686 1.189a.588.588 0 0 0 .804.215l4.075-2.353a.588.588 0 0 0 .215-.803l-1.748-3.028-5.094 2.94Zm2.373 1.082a1.73 1.73 0 0 0 2.478-1.43l-2.478 1.43Zm1.46-2.842a.915.915 0 0 1 1.176.226l-.434.25a.425.425 0 0 0-.7.405l-.435.25a.915.915 0 0 1 .393-1.131Zm-2.18 1.258c.4-.23.9-.126 1.177.226l-.434.25a.425.425 0 0 0-.7.405l-.435.251a.915.915 0 0 1 .392-1.132Zm-2.043-1.349a.588.588 0 0 0-.215.804l.36.622 5.094-2.941-.36-.623a.588.588 0 0 0-.803-.215l-4.075 2.353Z" clip-rule="evenodd"/>
    <g filter="url(#MenuWallets_svg__d)">
        <path fill="url(#MenuWallets_svg__e)" fill-opacity=".3" d="M7.5 14.868c0-1.308 1.004-2.368 2.241-2.368H21.51c1.238 0 2.241 1.06 2.241 2.368v6.514c0 1.308-1.003 2.368-2.241 2.368H9.74c-1.237 0-2.241-1.06-2.241-2.368v-6.514Z"/>
    </g>
    <path fill="#1C68F3" d="M24.375 16.797v2.078a.5.5 0 0 1-.5.5h-2a1.25 1.25 0 0 1 0-2.5h2.388c.082 0 .112-.078.112-.078Z" opacity=".5"/>
    <circle cx="21.875" cy="18.125" r=".625" fill="#fff"/>
    <defs>
        <linearGradient id="MenuWallets_svg__b" x1="7.5" x2="23.75" y1="22.5" y2="22.5" gradientUnits="userSpaceOnUse">
            <stop stop-color="#B0CFEB"/>
            <stop offset="1" stop-color="#C4E1FB"/>
        </linearGradient>
        <linearGradient id="MenuWallets_svg__c" x1="22.374" x2="13.714" y1="13.214" y2="18.214" gradientUnits="userSpaceOnUse">
            <stop stop-color="#AFC3E1"/>
            <stop offset="1" stop-color="#C3D7F5"/>
        </linearGradient>
        <linearGradient id="MenuWallets_svg__e" x1="7.5" x2="23.75" y1="23.75" y2="23.75" gradientUnits="userSpaceOnUse">
            <stop stop-color="#B0CFEB"/>
            <stop offset="1" stop-color="#C4E1FB"/>
        </linearGradient>
        <filter id="MenuWallets_svg__a" width="24.25" height="20.5" x="3.5" y="6" color-interpolation-filters="sRGB" filterUnits="userSpaceOnUse">
            <feFlood flood-opacity="0" result="BackgroundImageFix"/>
            <feGaussianBlur in="BackgroundImage" stdDeviation="2"/>
            <feComposite in2="SourceAlpha" operator="in" result="effect1_backgroundBlur_1005_35809"/>
            <feBlend in="SourceGraphic" in2="effect1_backgroundBlur_1005_35809" result="shape"/>
        </filter>
        <filter id="MenuWallets_svg__d" width="24.25" height="19.25" x="3.5" y="8.5" color-interpolation-filters="sRGB" filterUnits="userSpaceOnUse">
            <feFlood flood-opacity="0" result="BackgroundImageFix"/>
            <feGaussianBlur in="BackgroundImage" stdDeviation="2"/>
            <feComposite in2="SourceAlpha" operator="in" result="effect1_backgroundBlur_1005_35809"/>
            <feBlend in="SourceGraphic" in2="effect1_backgroundBlur_1005_35809" result="shape"/>
        </filter>
    </defs>
</svg>
