<svg xmlns="http://www.w3.org/2000/svg" width="25" height="24" fill="none">
    <path fill="#767F8D" fill-rule="evenodd" d="M12.104 18.543c-1.347 0-2.521-.401-3.366-1.19-.85-.794-1.288-1.91-1.288-3.176V7.059c0-1.261.435-2.37 1.278-3.164.838-.788 2.003-1.192 3.34-1.2h.004l6.575-.002c1.347 0 2.521.401 3.365 1.19.85.795 1.288 1.91 1.288 3.176v7.118c0 1.26-.435 2.37-1.278 3.163-.837.788-2.002 1.192-3.339 1.2h-.004l-6.575.003v-.8.8Zm0-1.6c-1.033 0-1.786-.304-2.273-.76-.482-.45-.78-1.118-.78-2.006V7.059c0-.883.295-1.549.773-1.998.483-.455 1.229-.76 2.25-.766h.003l6.569-.002h.001c1.033 0 1.786.304 2.273.76.481.45.78 1.118.78 2.006v7.118c0 .883-.296 1.548-.774 1.998-.483.454-1.228.759-2.25.765l-6.572.003Z" clip-rule="evenodd"/>
    <path fill="#767F8D" fill-rule="evenodd" d="M8.616 21.658c-1.348 0-2.522-.401-3.366-1.19-.85-.794-1.288-1.909-1.288-3.176v-7.118c0-1.626.725-2.979 2.052-3.733a.8.8 0 0 1 .79 1.391c-.77.438-1.242 1.225-1.242 2.342v7.118c0 .888.298 1.556.78 2.007.487.455 1.24.76 2.273.76l6.573-.004c1.145-.007 1.942-.387 2.418-.94a.8.8 0 1 1 1.214 1.042c-.843.98-2.125 1.49-3.626 1.498h-.004l-6.574.003v-.8.8Z" clip-rule="evenodd"/>
</svg>
