<svg xmlns="http://www.w3.org/2000/svg" width="60" height="61" fill="none">
    <g clip-path="url(#Empty_svg__a)">
        <path fill="url(#Empty_svg__b)" d="M58.75 48.625C58.75 53.803 46.158 58 30.625 58S2.5 53.803 2.5 48.625c0-2.72 3.477-5.171 9.031-6.884v.38l18.41 7.441 18.403-7.45v-.768c6.349 1.719 10.406 4.342 10.406 7.281Z"/>
        <path fill="#699EFF" d="m48.35 23.4-18.416 7.505v-13.75L48.35 23.4Z"/>
        <path fill="#82AEFF" d="M29.934 17.155V30.86L11.518 23.4l18.416-6.246Z"/>
        <g filter="url(#Empty_svg__c)">
            <path fill="#7DABFF" fill-opacity=".5" d="m11.518 42.134 18.416 7.458V30.857l-18.416-7.456v18.733Z"/>
        </g>
        <g filter="url(#Empty_svg__d)">
            <path fill="#7AA9FF" fill-opacity=".32" d="M29.934 30.857v18.734l18.416-7.457V23.401l-18.416 7.456Z"/>
        </g>
        <g filter="url(#Empty_svg__e)">
            <path fill="#6CA0FF" fill-opacity=".2" d="m0 27.97 18.416 7.496 11.519-4.569-18.417-7.496L0 27.969Zm29.935 2.927 11.518 4.569 18.416-7.497L48.351 23.4l-18.416 7.497Z"/>
        </g>
        <g filter="url(#Empty_svg__f)">
            <path fill="#1C68F3" fill-opacity=".2" fill-rule="evenodd" d="M21.165 14.015a2.5 2.5 0 0 0-1.768 3.061l.97 3.623a2.5 2.5 0 0 0 3.063 1.767l2.414-.646.68.391a.1.1 0 0 0 .136-.036l.392-.68.179-.047.538-.144 1.698-.455a2.5 2.5 0 0 0 1.767-3.062l-.97-3.622a2.5 2.5 0 0 0-3.062-1.768l-6.037 1.618Zm1.898 4.668a.625.625 0 1 0-.324-1.208.625.625 0 0 0 .324 1.207Zm2.856-1.413a.625.625 0 1 1-1.207.323.625.625 0 0 1 1.207-.323Zm1.973.118a.625.625 0 1 0-.323-1.207.625.625 0 0 0 .323 1.207Z" clip-rule="evenodd"/>
        </g>
    </g>
    <defs>
        <filter id="Empty_svg__c" width="26.416" height="34.191" x="7.518" y="19.401" color-interpolation-filters="sRGB" filterUnits="userSpaceOnUse">
            <feFlood flood-opacity="0" result="BackgroundImageFix"/>
            <feGaussianBlur in="BackgroundImage" stdDeviation="2"/>
            <feComposite in2="SourceAlpha" operator="in" result="effect1_backgroundBlur_915_73849"/>
            <feBlend in="SourceGraphic" in2="effect1_backgroundBlur_915_73849" result="shape"/>
        </filter>
        <filter id="Empty_svg__d" width="26.416" height="34.191" x="25.934" y="19.401" color-interpolation-filters="sRGB" filterUnits="userSpaceOnUse">
            <feFlood flood-opacity="0" result="BackgroundImageFix"/>
            <feGaussianBlur in="BackgroundImage" stdDeviation="2"/>
            <feComposite in2="SourceAlpha" operator="in" result="effect1_backgroundBlur_915_73849"/>
            <feBlend in="SourceGraphic" in2="effect1_backgroundBlur_915_73849" result="shape"/>
        </filter>
        <filter id="Empty_svg__e" width="67.869" height="20.065" x="-4" y="19.401" color-interpolation-filters="sRGB" filterUnits="userSpaceOnUse">
            <feFlood flood-opacity="0" result="BackgroundImageFix"/>
            <feGaussianBlur in="BackgroundImage" stdDeviation="2"/>
            <feComposite in2="SourceAlpha" operator="in" result="effect1_backgroundBlur_915_73849"/>
            <feBlend in="SourceGraphic" in2="effect1_backgroundBlur_915_73849" result="shape"/>
        </filter>
        <filter id="Empty_svg__f" width="20.009" height="18.241" x="15.311" y="8.311" color-interpolation-filters="sRGB" filterUnits="userSpaceOnUse">
            <feFlood flood-opacity="0" result="BackgroundImageFix"/>
            <feGaussianBlur in="BackgroundImage" stdDeviation="2"/>
            <feComposite in2="SourceAlpha" operator="in" result="effect1_backgroundBlur_915_73849"/>
            <feBlend in="SourceGraphic" in2="effect1_backgroundBlur_915_73849" result="shape"/>
        </filter>
        <linearGradient id="Empty_svg__b" x1="30.625" x2="30.625" y1="39.25" y2="50.599" gradientUnits="userSpaceOnUse">
            <stop stop-color="#3E7DEF" stop-opacity=".29"/>
            <stop offset="1" stop-color="#8DB3F9" stop-opacity="0"/>
        </linearGradient>
        <clipPath id="Empty_svg__a">
            <path fill="#fff" d="M0 0h60v60H0z" transform="translate(0 .5)"/>
        </clipPath>
    </defs>
</svg>
