<svg xmlns="http://www.w3.org/2000/svg" width="20" height="20">
    <path fill="currentColor" fill-rule="evenodd" d="M10 1.185c.345 0 .625.28.625.625v3.333a.625.625 0 1 1-1.25 0V1.81c0-.345.28-.625.625-.625Zm0 13.333c.345 0 .625.28.625.625v3.334a.625.625 0 1 1-1.25 0v-3.334c0-.345.28-.625.625-.625ZM3.665 3.81a.625.625 0 0 1 .884 0l2.359 2.358a.625.625 0 0 1-.884.884L3.665 4.694a.625.625 0 0 1 0-.884Zm9.426 9.425a.625.625 0 0 1 .884 0l2.359 2.358a.625.625 0 1 1-.884.884l-2.359-2.358a.625.625 0 0 1 0-.884Zm-12.05-3.092c0-.345.28-.625.625-.625h3.333a.625.625 0 1 1 0 1.25H1.666a.625.625 0 0 1-.625-.625Zm13.334 0c0-.345.28-.625.625-.625h3.333a.625.625 0 1 1 0 1.25H15a.625.625 0 0 1-.625-.625Zm-7.467 3.092a.625.625 0 0 1 0 .884l-2.359 2.358a.625.625 0 1 1-.884-.884l2.359-2.358a.625.625 0 0 1 .884 0Zm9.426-9.425a.625.625 0 0 1 0 .884l-2.359 2.358a.625.625 0 1 1-.884-.884L15.45 3.81a.625.625 0 0 1 .884 0Z" clip-rule="evenodd"/>
</svg>
