<svg xmlns="http://www.w3.org/2000/svg" width="48" height="48">
    <rect width="3" height="15" x="7" y="26.5" fill="#1C68F3" rx="1.5" transform="rotate(-30 7 26.5)"/>
    <path fill="url(#SignUpAccount_svg__a)" fill-rule="evenodd" d="M27.652 26.131c-2.165.691-4.508.326-6.633-.995a.968.968 0 0 0-.827-.1.995.995 0 0 0-.63.588c-.954 2.28-2.672 3.943-4.837 4.634-3.464 1.106-7.4-.546-9.811-4.116a12.289 12.289 0 0 1-1.527-3.147 15.11 15.11 0 0 1-.417-1.662l-.37-2.086 1.73 1.22a1.28 1.28 0 0 0 1.126.186c.103-.033.2-.087.296-.14l.438-.48.028-.055.056-.109a9.5 9.5 0 0 1 5.045-3.837 9.479 9.479 0 0 1 6.002.084 9.48 9.48 0 0 1 4.844-3.546 9.544 9.544 0 0 1 6.335.204l.11.056c.08.042.183.078.285.114l.027.013c.225.065.472.054.72-.025a1.25 1.25 0 0 0 .81-.804l.683-1.99.906 1.915c.26.53.452 1.06.623 1.596.362 1.134.553 2.3.58 3.45.143 4.293-2.128 7.926-5.592 9.032Zm-13.344-1.306a4.32 4.32 0 0 1-.899.173c-1.692.108-3.265-1.048-3.99-1.68.521-.575 1.561-1.588 2.86-2.003.31-.099.59-.143.899-.174 1.692-.108 3.265 1.048 3.99 1.68-.542.582-1.582 1.596-2.86 2.004Zm7.066-3.346c.757.167 2.213.384 3.49-.024.31-.099.586-.232.834-.38 1.421-.885 2.054-2.746 2.278-3.68-.757-.168-2.212-.385-3.49.024-.31.098-.586.232-.834.379-1.421.885-2.054 2.746-2.278 3.68Z" clip-rule="evenodd"/>
    <g filter="url(#SignUpAccount_svg__b)">
        <path fill="#1C68F3" fill-opacity=".1" fill-rule="evenodd" d="m28.53 16.475.364-.606L46 21.515l-.073.702a20.116 20.116 0 0 1-.97 4.555c-1.186 3.562-3.222 6.615-5.717 8.601-1.866 1.478-3.877 2.254-5.791 2.254-.751 0-1.478-.097-2.18-.34-2.52-.847-4.386-3.077-5.234-6.299-.824-3.077-.63-6.736.557-10.297a19.613 19.613 0 0 1 1.939-4.216Zm2.182 10.006c.363.17.75.243 1.187.243.387 0 .824-.073 1.284-.194a7.308 7.308 0 0 0 1.068-.463.737.737 0 0 1 .095-.046l.485-.29-.267-.51c-.024-.072-.8-1.55-2.326-2.229-1.526-.678-3.15-.242-3.222-.218l-.558.146.122.557a.876.876 0 0 1 .046.142c.061.208.182.62.39 1.07.436.872 1.017 1.502 1.696 1.792Zm7.535 2.569c.194.048.388.072.605.072.582 0 1.212-.17 1.818-.484a5.1 5.1 0 0 0 1.066-.703l.436-.387-.34-.46c-.048-.074-1.09-1.406-2.713-1.77-1.502-.336-2.901.262-3.159.372a.765.765 0 0 1-.04.016l-.508.242.218.533c0 .025.218.558.63 1.115.582.775 1.26 1.284 1.987 1.454Z" clip-rule="evenodd"/>
    </g>
    <defs>
        <linearGradient id="SignUpAccount_svg__a" x1="3" x2="32.5" y1="21.5" y2="12">
            <stop stop-color="#1C68F3"/>
            <stop offset="1" stop-color="#6CB8FF"/>
        </linearGradient>
        <filter id="SignUpAccount_svg__b" width="28.466" height="29.758" x="21.533" y="11.869" color-interpolation-filters="sRGB">
            <feFlood flood-opacity="0" result="BackgroundImageFix"/>
            <feGaussianBlur in="BackgroundImage"/>
            <feComposite in2="SourceAlpha" operator="in" result="effect1_backgroundBlur"/>
            <feBlend in="SourceGraphic" in2="effect1_backgroundBlur" result="shape"/>
        </filter>
    </defs>
</svg>
