<svg xmlns="http://www.w3.org/2000/svg" width="20" height="20">
    <g filter="url(#Trash_svg__filter0_b)">
        <path fill="#1C68F3" fill-opacity=".1" d="M3.333 9.246c0-.964.824-1.746 1.84-1.746h9.655c1.015 0 1.839.782 1.839 1.746v5.675c0 .964-.824 1.746-1.84 1.746H5.173c-1.015 0-1.839-.782-1.839-1.746V9.246z"/>
    </g>
    <path fill="#1C68F3" d="m14.167 4.662-2.584-.423a.233.233 0 0 1-.187-.169l-.188-.737h-2.42l-.184.736a.227.227 0 0 1-.187.17l-2.584.423v.49h8.334v-.49zm-1.601 8.671.674-7.727H6.76l.675 7.727h5.131zm-1.167-6.6a.23.23 0 0 1 .076-.157.238.238 0 0 1 .166-.06.23.23 0 0 1 .221.235l-.232 5.455a.226.226 0 0 1-.07.155.234.234 0 0 1-.16.063h-.01a.233.233 0 0 1-.208-.149.226.226 0 0 1-.014-.087l.231-5.455zm-1.62.01c0-.06.024-.119.067-.161a.234.234 0 0 1 .328 0c.043.042.068.1.068.16v5.455c0 .06-.025.118-.068.16a.234.234 0 0 1-.328 0 .225.225 0 0 1-.068-.16V6.743zm-1.4-.228a.238.238 0 0 1 .166.06.23.23 0 0 1 .076.157l.232 5.455a.23.23 0 0 1-.222.236h-.01a.233.233 0 0 1-.16-.063.225.225 0 0 1-.071-.154L8.158 6.75a.224.224 0 0 1 .061-.163c.042-.044.1-.07.16-.073z"/>
    <g filter="url(#Trash_svg__filter1_b)">
        <path fill="#1C68F3" fill-opacity=".05" d="M3.333 10.746c0-.872.824-1.58 1.84-1.58h9.655c1.015 0 1.839.708 1.839 1.58v4.342c0 .872-.824 1.579-1.84 1.579H5.173c-1.015 0-1.839-.707-1.839-1.58v-4.341z"/>
    </g>
</svg>
