<svg xmlns="http://www.w3.org/2000/svg" width="36" height="36">
    <rect width="27" height="27" x="5" y="4.5" fill="url(#CrossBridge_svg__a)" rx="2"/>
    <path fill="#fff" d="m25.243 8.965 3.552 3.553a.3.3 0 0 1 0 .425l-3.553 3.552a.3.3 0 0 1-.423 0l-.846-.845a.3.3 0 0 1 0-.424l1.596-1.596h-4.796a.3.3 0 0 1-.3-.3v-1.2a.3.3 0 0 1 .3-.3h4.793l-1.595-1.593a.3.3 0 0 1 0-.425l.848-.847a.3.3 0 0 1 .424 0Z"/>
    <g filter="url(#CrossBridge_svg__b)">
        <circle cx="12.617" cy="12.75" r="4.5" fill="url(#CrossBridge_svg__c)"/>
    </g>
    <path fill="#fff" d="m11.757 27.035-3.552-3.553a.3.3 0 0 1 0-.425l3.553-3.552a.3.3 0 0 1 .423 0l.846.845a.3.3 0 0 1 0 .424l-1.596 1.596h4.796a.3.3 0 0 1 .3.3v1.2a.3.3 0 0 1-.3.3h-4.793l1.595 1.593a.3.3 0 0 1 0 .425l-.848.847a.3.3 0 0 1-.424 0Z"/>
    <g filter="url(#CrossBridge_svg__d)">
        <circle cx="24.383" cy="23.25" r="4.5" fill="url(#CrossBridge_svg__e)" transform="rotate(-180 24.383 23.25)"/>
    </g>
    <defs>
        <linearGradient id="CrossBridge_svg__a" x1="19.684" x2="19.568" y1="4.5" y2="31.5">
            <stop stop-color="#ACCBEE"/>
            <stop offset="1" stop-color="#E7F0FD"/>
        </linearGradient>
        <linearGradient id="CrossBridge_svg__c" x1="12.404" x2="12.404" y1="17.25" y2="8.25">
            <stop stop-color="#00C6FB"/>
            <stop offset="1" stop-color="#005BEA"/>
        </linearGradient>
        <linearGradient id="CrossBridge_svg__e" x1="24.383" x2="24.545" y1="18.75" y2="27.75">
            <stop stop-color="#F093FB"/>
            <stop offset="1" stop-color="#F5576C"/>
        </linearGradient>
        <filter id="CrossBridge_svg__b" width="19" height="19" x="3.117" y="3.25" color-interpolation-filters="sRGB">
            <feFlood flood-opacity="0" result="BackgroundImageFix"/>
            <feGaussianBlur in="BackgroundImage"/>
            <feComposite in2="SourceAlpha" operator="in" result="effect1_backgroundBlur_898_2514"/>
            <feBlend in="SourceGraphic" in2="effect1_backgroundBlur_898_2514" result="shape"/>
        </filter>
        <filter id="CrossBridge_svg__d" width="19" height="19" x="14.883" y="13.75" color-interpolation-filters="sRGB">
            <feFlood flood-opacity="0" result="BackgroundImageFix"/>
            <feGaussianBlur in="BackgroundImage"/>
            <feComposite in2="SourceAlpha" operator="in" result="effect1_backgroundBlur_898_2514"/>
            <feBlend in="SourceGraphic" in2="effect1_backgroundBlur_898_2514" result="shape"/>
        </filter>
    </defs>
</svg>
