<svg xmlns="http://www.w3.org/2000/svg" width="32" height="32" viewBox="-1 -2 32 32">
    <g clip-path="url(#Markets_svg__a)">
        <path fill="url(#Markets_svg__b)" d="M24.976 4.591H7.672c-1.064 0-1.904.84-1.904 1.848v17.473c0 1.008.84 1.848 1.904 1.848h17.304c1.064 0 1.904-.84 1.904-1.849V6.44c0-1.064-.84-1.848-1.904-1.848Z"/>
        <g filter="url(#Markets_svg__c)">
            <path fill="url(#Markets_svg__d)" fill-opacity=".8" d="M17.92 25.591a3.301 3.301 0 0 1-2.352-.952L4.032 13.047a3.172 3.172 0 0 1-.952-2.296l-.168-5.488c0-.896.336-1.792.952-2.464.672-.672 1.512-1.008 2.464-.952l5.544.112c.84 0 1.68.392 2.296.952l11.536 11.536c.616.616.952 1.456.952 2.352 0 .896-.336 1.736-.952 2.352l-5.432 5.488a3.301 3.301 0 0 1-2.352.952Z" shape-rendering="crispEdges"/>
        </g>
        <path fill="#fff" d="M8.378 7.034a1.974 1.974 0 0 1-2.814 0 1.974 1.974 0 0 1 0-2.814 1.974 1.974 0 0 1 2.814 0 1.974 1.974 0 0 1 0 2.814ZM6.39 5.047a.8.8 0 0 0 0 1.16.8.8 0 0 0 1.16 0 .8.8 0 0 0 0-1.16.8.8 0 0 0-1.16 0Zm6.953 3.407.807.807-3.888 3.888-.807-.807 3.888-3.888Zm4.392 4.392-.689.688-1.163-1.163-3.2 3.2-.817-.818 3.2-3.2-1.17-1.168.69-.689 3.149 3.15Zm-1.895 6.098c-.555-.555-.828-1.131-.82-1.727-.022-.765.315-1.497 1.014-2.195.712-.712 1.443-1.05 2.194-1.013.596-.009 1.172.265 1.728.82.556.556.829 1.132.82 1.728.035.75-.303 1.48-1.015 2.192-.698.698-1.43 1.037-2.192 1.016-.596.008-1.172-.265-1.728-.82Zm1.813-.277c.426-.049.857-.292 1.295-.73.436-.436.678-.868.726-1.295.05-.428-.085-.802-.407-1.124-.321-.322-.697-.46-1.126-.414-.429.046-.862.287-1.3.725-.438.438-.68.872-.726 1.3-.045.43.093.805.414 1.127.322.322.697.459 1.124.411Z"/>
    </g>
    <defs>
        <linearGradient id="Markets_svg__b" x1="16.324" x2="16.324" y1="4.591" y2="25.759">
            <stop stop-color="#1B90EE"/>
            <stop offset="1" stop-color="#28E5FF"/>
        </linearGradient>
        <linearGradient id="Markets_svg__d" x1="14.784" x2="14.784" y1="1.841" y2="25.591">
            <stop stop-color="red"/>
            <stop offset="1" stop-color="#FF2C2C"/>
        </linearGradient>
        <clipPath id="Markets_svg__a">
            <path fill="#fff" d="M0 0h28v28H0z"/>
        </clipPath>
        <filter id="Markets_svg__c" width="31.744" height="33.75" x="-1.088" y="-2.159" color-interpolation-filters="sRGB">
            <feFlood flood-opacity="0" result="BackgroundImageFix"/>
            <feGaussianBlur in="BackgroundImage"/>
            <feComposite in2="SourceAlpha" operator="in" result="effect1_backgroundBlur_898_1294"/>
            <feColorMatrix in="SourceAlpha" result="hardAlpha" values="0 0 0 0 0 0 0 0 0 0 0 0 0 0 0 0 0 0 127 0"/>
            <feOffset dy="2"/>
            <feGaussianBlur/>
            <feComposite in2="hardAlpha" operator="out"/>
            <feColorMatrix values="0 0 0 0 0 0 0 0 0 0 0 0 0 0 0 0 0 0 0.1 0"/>
            <feBlend in2="effect1_backgroundBlur_898_1294" result="effect2_dropShadow_898_1294"/>
            <feBlend in="SourceGraphic" in2="effect2_dropShadow_898_1294" result="shape"/>
        </filter>
    </defs>
</svg>
