<svg xmlns="http://www.w3.org/2000/svg" width="24" height="24">
    <path fill="#2351BD" d="M24 11.1v2.3c-.2.1-.5.2-.7.1-.2-.3-.3-.7-.5-1.1-.1-1.3-.2-2.6.1-3.9.5-.3.6.1.7.4.2.7.1 1.5.4 2.2z"/>
    <path fill="#0F59B9" d="M24 3.2V6c-.5 0-.5-.4-.6-.7-.2-.7-.3-1.5-.6-2.2-.2-.4 0-.9-.2-1.3-.1-.1-.1-.2-.2-.4-.1-.3-.3-.7 0-1 .3 0 .6-.1.8 0 .4.6.3 1.3.5 2 .1.3.1.6.3.8z"/>
    <path fill="#1656BA" d="M22.9 3.1c.5.7.4 1.5.7 2.3.1.2.1.5.4.6v3.1c-.4.1-.4-.2-.5-.5-.2-.8-.3-1.7-.7-2.4-.1-1-.3-2.1.1-3.1z"/>
    <path fill="#597EB8" d="M22.9 3.1v3.3c.2.6.5 1.3 0 1.9v4.2c.2.2.1.6.3.9h.7v.2h-.2c-.7.4-1.4.2-2.2.2h-.8c-.3 0-.5 0-.7-.2 0-.1 0-.2.1-.3.3-.2.7-.2 1-.2 1.2 0 1.2-.1 1.2-1.3V3.2c0-.4 0-.9.1-1.3 0-.1.1-.2.2-.3.5.4.2 1 .3 1.5z"/>
    <path fill="#1F56BB" d="M22.9 8.3V6.4c.6.5.4 1.4.7 2.1.1.2.1.5.4.7v1.9c-.6-.6-.4-1.4-.7-2.1-.1-.2 0-.6-.4-.7z"/>
    <path fill="#085CB7" d="M24 3.2c-.6-.8-.6-1.8-.7-2.8.2-.2.5-.1.7 0v2.8z"/>
    <path fill="#E7B4DC" d="M.2 17.7c-.4 0-.2-.3-.2-.4v-6.7c.1-.1.2 0 .3.1.1.1.1.3.1.4.1.9 0 1.9 0 2.8-.1 1.2.1 2.4-.1 3.5 0 .2 0 .2-.1.3z"/>
    <path fill="#E3B8DD" d="M.2 10.6H.1V5.2h.2c.4.4.2.9.3 1.4v2.2c-.2.5.1 1.2-.4 1.8z"/>
    <path fill="#D8D2E0" d="M15.1.3h4c.1.1.1.2 0 .2-.2.1-.4.2-.6.2h-2.3c-.3 0-.7 0-1-.2-.2 0-.2-.1-.1-.2z"/>
    <path fill="#DFC7DF" d="M15.1.3v.1c-.1.1-.2.1-.2.2-.3.1-.6.1-.9.1h-2c-.2 0-.3 0-.5-.1-.1 0-.2-.1-.2-.1-.1-.1-.1-.2 0-.2h3.8z"/>
    <path fill="#E7BBDD" d="M11.2.3v.1c-.2.3-.5.3-.8.3H8c-.1 0-.3-.1-.4-.1-.1-.1-.1-.2 0-.2C8.8.3 10 .3 11.2.3z"/>
    <path fill="#F1B0DD" d="M7.6.3v.1c-.2.2-.4.2-.7.3h-.8C5.5.7 4.9.8 4.3.6 4.2.6 4.1.5 4 .4V.2c1.2.1 2.4.1 3.6.1z"/>
    <path fill="#C5D3D9" d="M24 .4h-1.6c-.2.1-.3.2-.5.2s-.5 0-.7-.1c-.1-.1-.1-.2 0-.2h2.5c.1 0 .3-.1.3.1z"/>
    <path fill="#8D8AD3" d="M16.1 17.7h-2.6c0-.1 0-.2.1-.2.2-.1.4-.1.6-.2h1.5c.1 0 .3.1.4.1.1.2.1.2 0 .3z"/>
    <path fill="#A268D5" d="M9.3 17.7H7c0-.1 0-.2.1-.2.1-.1.3-.1.5-.2h1c.2 0 .3 0 .5.1.1 0 .2.1.2.1.1.1.1.2 0 .2z"/>
    <path fill="#9B74D4" d="M9.3 17.7v-.2c.1-.2.3-.2.5-.2H11c.2 0 .4 0 .5.2.1.1.1.2 0 .2H9.3z"/>
    <path fill="#D0D4DD" d="M21.2.3v.1c-.1.1-.2.2-.4.2h-.7c-.3 0-.6 0-.8-.1-.1 0-.2-.1-.2-.2V.2c.7.1 1.4.1 2.1.1z"/>
    <path fill="#C33CD9" d="M.2 17.7v-.2c.3-.3.7-.2 1.1-.2.2 0 .5 0 .7.1.1 0 .2.1.2.1.1.1.1.2 0 .2h-2z"/>
    <path fill="#AB5BD6" d="M7 17.6v.2H5.1c-.1-.1-.1-.2 0-.2.2-.1.3-.1.5-.2h.7c.2 0 .4 0 .6.1.1 0 .1 0 .1.1z"/>
    <path fill="#9581D4" d="M11.6 17.7v-.2l.2-.2c.2-.1.3-.1.5-.1h.5c.2 0 .4 0 .6.1l.1.1v.2c-.6.1-1.3.1-1.9.1z"/>
    <path fill="#6E87CA" d="M19.3 17.6v.2h-1.7c0-.1 0-.2.1-.2.2-.2.5-.2.8-.2.2 0 .5 0 .7.1 0-.1 0 0 .1.1z"/>
    <path fill="#B948D8" d="M2.3 17.7v-.2c.1-.2.3-.2.4-.2h.6c.2 0 .3 0 .5.2 0 .1.1.1.1.1v.1H2.3z"/>
    <path fill="#7D89CF" d="M17.5 17.6v.2h-1.4v-.2c.1-.2.3-.2.5-.2.3 0 .6 0 .8.1 0 0 .1 0 .1.1z"/>
    <path fill="#B251D7" d="M3.9 17.7v-.2l.1-.1c.1 0 .1-.1.2-.1h.3c.2 0 .3 0 .4.1.1 0 .1.1.2.1v.2H3.9z"/>
    <path fill="#9B1ED8" d="M4.9 17.5h-.5c-.6-.6-.6-1.5-.9-2.4-.9-3.3-1.7-6.6-2.6-9.9-.1-.3-.2-.6 0-.9.1-.1.2-.2.3-.4.1 0 .1 0 .1.1.4.3.5.8.6 1.2.9 3.7 2 7.4 2.9 11.2.2.4.4.7.1 1.1z"/>
    <path fill="#A31ADA" d="M3.9 17.6h-.5c-.7-.8-.7-1.8-.9-2.6C1.7 12.2 1 9.4.3 6.6c0-.5 0-.9-.1-1.4L.4 5c.7.1.6.7.7 1.1.8 3.2 1.7 6.3 2.5 9.5.2.7.6 1.3.3 2z"/>
    <path fill="#9023D6" d="M1.8 3.3c.1-.2.3-.4.5-.6.6.3.6.9.8 1.4.3 1.3.6 2.7 1.2 3.9 0 1 .1 1.9-.1 2.8-.6.3-.6-.2-.7-.5-.5-1.8-1-3.6-1.4-5.4-.2-.5-.5-1.1-.3-1.6z"/>
    <path fill="#8926D4" d="M4 8c-.7-.9-.6-2-1-3-.3-.8-.3-1.6-.7-2.3.1-.4.5-.6.7-.9.4.2.4.6.5 1 .2.8.4 1.6.8 2.4 0 .9.3 1.8-.3 2.8z"/>
    <path fill="#9F1CD9" d="M.9 4.3c1.2 4.4 2.3 8.9 3.5 13.3h-.3c-.8-2.7-1.4-5.5-2.2-8.2-.4-1.5-.6-3.1-1.3-4.6.1-.2.1-.4.3-.5z"/>
    <path fill="#9F1CD9" d="M.5 4.8c.4.1.4.5.5.8L4 17v.5h-.2c-1-3.8-2-7.7-3-11.5-.1-.4-.1-.8-.5-1.1.1 0 .2 0 .2-.1z"/>
    <path fill="#9620D7" d="M1.8 3.3c.6 2.3 1.3 4.7 1.9 7.1.1.2.1.4.3.5.3.3.3.7.1 1.1-.6.2-.6-.2-.7-.6-.6-2.1-1.1-4.1-1.6-6.2-.1-.5-.1-1-.6-1.3l.6-.6z"/>
    <path fill="#8329D3" d="M4 5c-.6-.5-.5-1.2-.7-1.8-.1-.5-.2-.9-.3-1.4.3-.5.6-.9 1-1.3.4.3.2.7.3 1.1.1.8 0 1.6 0 2.3 0 .5 0 .8-.3 1.1z"/>
    <path fill="#D70AE4" d="M4.1 1.7c0-.4 0-.7-.1-1.1V.5h.2c.3.2.2.7.7.8.7 0 1.1-.1 1.3-.8h.7c.3.4.8.8.3 1.3-1 .1-2.1.4-3.1-.1z"/>
    <path fill="#1F53BC" d="M19.3 17.6h-.2c-.7-1.1-.8-2.3-1.1-3.4-.7-2.2-1-4.4-1.8-6.6 0-.1-.1-.2-.1-.3 0-.6-.2-1.2.1-1.8.7-.1.7.5.8.8.3 1.1.6 2.1.8 3.2.7 2.3 1.2 4.6 1.8 6.9.1.3.2.6 0 .9l-.3.3z"/>
    <path fill="#1A55BB" d="M19.6 17.3c-.9-3.6-1.9-7.2-2.8-10.8-.1-.3-.1-.8-.5-1-.3-.5-.2-.8.4-.8.6.2.5.8.6 1.3.9 3.2 1.7 6.5 2.6 9.7.1.3.3.7.4 1-.2.2-.4.4-.7.6z"/>
    <path fill="#1557BA" d="M20.7 16.2c-.1.1-.2.2-.2.3-.4 0-.5-.2-.5-.5-1-3.6-2-7.3-2.9-10.9v-.2c.1-.1.3-.1.4-.1.3.1.4.4.5.7.7 2.5 1.2 5.1 2 7.5.3.8.3 1.7.6 2.5.1.2.2.5.1.7z"/>
    <path fill="#1657BA" d="M17.2 4.8c.9 3.6 1.8 7.1 2.8 10.6.1.4.1.8.5 1.1 0 .1 0 .2-.1.2-.5-.1-.5-.4-.6-.8l-3-11.1c.1-.1.2-.1.4 0z"/>
    <path fill="#0361B6" d="M21.5 13.6h2.3c-.5.6-1.1 1.1-1.7 1.6-.7-.4-.8-.8-.6-1.6z"/>
    <path fill="#0E5AB8" d="M20.7 16.2c-.1-.2-.1-.4-.2-.6-.1-.7-.6-1.3-.4-2h.7c.4.6.5 1.3.7 2-.2.3-.4.6-.8.6z"/>
    <path fill="#095EB7" d="M21.5 15.6c-.6-.5-.5-1.3-.7-2h.7c0 .6.1 1.1.5 1.5-.1.2-.2.4-.5.5z"/>
    <path fill="#3054BD" d="M23.3 13.4c-.6-.1-.3-.6-.3-.9.3.2.3.5.3.9z"/>
    <path fill="#1B59BA" d="M21.9.5h.5c.1.3.2.7.2 1-.2.2-.5.2-.8 0-.2-.3-.2-.7.1-1z"/>
    <path fill="#3052BE" d="M21.9 1.5h.7c.1 0 .1.1.2.1v.1c-.6.3-1.2.3-1.7.1-.1-.1-.1-.2-.1-.3.3-.3.6-.2.9 0z"/>
    <path fill="#F1EBA1" d="M21 1.6c.6 0 1.2.1 1.7.1v10.9c0 .6-.1.9-.8.8-.6-.1-1.2 0-1.8 0-.1-.2-.1-.5-.2-.6-.1-2.2 0-4.4-.1-6.6 0-1.3 0-1.3-1.3-1.3-.6 0-1.2-.2-1.8-.2-.4 0-.5.1-.5.5v2.2c.3 1.9.1 3.7.1 5.6 0 .3-.2.6-.6.7-.3.1-.5.1-.8 0h-1.7c-.3 0-.6 0-.9-.1-.8-.5-.5-1.2-.5-1.9V9.6c0-1.5.1-3-.1-4.5-.2-.4-.7-.3-1-.3H9.2c-.5-.1-.8.1-.8.6v1.8c0 .8.1 1.6 0 2.4v2.6c-.1.5.1 1-.3 1.3-.1.1-.3.2-.4.2H4.3c-.8-.4-.6-1-.4-1.6V1.6h3.3c.2-.2.4-.2.6-.2h11.6c.7 0 1.2-.1 1.6.2z"/>
    <path fill="#145AB9" d="M20.1 12.8c0 .2 0 .4.1.6v.2l.3 2.1c-.3-.3-.3-.7-.4-1-.9-3.3-1.7-6.6-2.6-9.9.1-.1.3-.1.4 0 .3.2.3.5.4.7.6 2.1 1.1 4.3 1.7 6.4.1.3 0 .6.1.9z"/>
    <path fill="#AC16DC" d="M2.8 17.6h-.7c-.3-.3-.3-.7-.4-1-.5-1.9-1-3.7-1.5-5.6 0-.1 0-.2-.1-.3 0-.6 0-1.3.1-1.9.7-.1.6.5.7.8.5 2 1.1 4 1.6 6.1.1.4.2.7.3 1.1.1.1.3.4 0 .8z"/>
    <path fill="#B214DD" d="M.3 10.9c.2.1.3.3.4.5.5 2.1 1.2 4.1 1.5 6.2h-.7c-.4-.2-.5-.6-.5-.9-.3-.9-.4-1.9-.7-2.8v-3z"/>
    <path fill="#BA11DF" d="M.3 13.9c.6.6.5 1.5.8 2.2.2.5.3.9.4 1.4H.3v-3.6z"/>
    <path fill="#A818DB" d="M.3 6.6c.6.6.6 1.4.8 2.1.8 2.9 1.6 5.9 2.3 8.9h-.3c-.7-2.2-1.2-4.5-1.8-6.7C1 9.8.7 8.8.3 7.7V6.6z"/>
    <path fill="#A818DB" d="M.3 7.6c.2 0 .3.1.3.3.8 3.2 1.6 6.5 2.5 9.7h-.2c-.7-2.7-1.4-5.4-2.1-8.2-.1-.3 0-.7-.5-.8v-1z"/>
    <path fill="#613EC9" d="M19.6 1.6h-4.2c0-.1 0-.2.1-.2.6-.1.4-.6.6-.9h.7c.3.4.4.9 1.1.8h.6c.3 0 .5 0 .8.1.2 0 .3.1.3.2z"/>
    <path fill="#6933CD" d="M16.1.5c.2.6.3 1.2-.7 1-.6-.1-.6-.2-.5-1 .1 0 .1 0 .2-.1.3 0 .7 0 1 .1z"/>
    <path fill="#513DC8" d="M17.9 1.5c-.8.1-1.1-.2-1-1h.9c.4.2.3.6.1 1z"/>
    <path fill="#4044C4" d="M19.4 1.5h-.9c-.3-.3-.3-.7 0-1 .2 0 .3 0 .5-.1.1 0 .1 0 .2.1.3.3.5.6.2 1z"/>
    <path fill="#4941C6" d="M18.6.5v1h-.7c0-.3.1-.7-.2-1h.9z"/>
    <path fill="#9B25D6" d="M13.7 1.6H9.5c0-.2.1-.2.2-.3h.8c.6.1.6-.5.9-.8h.5c.3.3.2.9.9.8.2 0 .4 0 .6.1.2 0 .3.1.3.2z"/>
    <path fill="#752ED0" d="M14.9.5c.3.3-.1.9.5 1v.1h-.7c-.8 0-.9-.5-.7-1.1h.9z"/>
    <path fill="#A21BDA" d="M11.4.5c.1.6 0 1.2-.9 1-.2-.3-.4-.6-.2-1 .3 0 .6 0 .9-.1.1 0 .2 0 .2.1z"/>
    <path fill="#8F23D6" d="M12.8 1.5c-.9.2-.9-.4-.9-1h.9c.3.3.3.6 0 1z"/>
    <path fill="#7F2AD2" d="M14 .5c.2.4.1 1 .7 1.1h-1c-.1 0-.1-.1-.2-.1-.2-.3-.3-.6-.2-1h.7z"/>
    <path fill="#8627D4" d="M13.3.5c.2.3.2.7.2 1h-.7v-1h.5z"/>
    <path fill="#CB0AE3" d="M7.9 1.6h-.5C6.9 1.3 7 .9 6.9.5c.2 0 .5 0 .7-.1.1 0 .2 0 .3.1.3.2.4.5.3.9 0 .1-.2.2-.3.2z"/>
    <path fill="#B712DF" d="M7.9 1.6c.1 0 .1-.1.2-.1.4-.2.4-.7.7-1h.7c.3.3.5.6.2 1-.1.1-.1.1-.2.1H7.9z"/>
    <path fill="#AC16DC" d="M9.7 1.5c-.1-.3-.1-.7-.2-1h.9c.1.3.2.7.2 1h-.9z"/>
    <path fill="#C00EE1" d="M8.8.5c0 .5.2 1.1-.7 1 .1-.4-.1-.7-.2-1h.9z"/>
    <path fill="#E105E7" d="M6.2.5c-.2.3.6.9-.3 1-1.4.1-1.6.1-1.6-1h1.9z"/>
    <path fill="#2152BD" d="M21.9 1.5H21l-.1-.1c-.2-.3-.3-.6-.1-.9.1 0 .2 0 .3-.1.2 0 .5 0 .7.1.1.3.1.6.1 1z"/>
    <path fill="#4D3FC7" d="M12.5 13.5h.9c.5 1.1.6 2.3 1 3.5.1.2 0 .4-.2.6h-.7c-.2-.1-.3-.2-.3-.4-.4-1.1-.7-2.2-.9-3.4 0-.1.1-.2.2-.3z"/>
    <path fill="#3947C2" d="M14.9 13.5h.7c.7 1.2 1.1 2.6 1 4h-.8c-.6-1-.7-2.2-1-3.4-.1-.2-.1-.4.1-.6z"/>
    <path fill="#4642C5" d="M14.2 17.5c-.1-1.1-.6-2.1-.8-3.1 0-.3-.1-.6-.1-.9h.7c.7 1.3 1.1 2.6 1 4h-.8z"/>
    <path fill="#4044C4" d="M15.1 17.5c-.3-1.3-.7-2.7-1-4h.9c0 1.2.6 2.1.8 3.3 0 .2.1.5.1.8-.4-.1-.6-.1-.8-.1z"/>
    <path fill="#722FCF" d="M8 13.5c.3-.3.1-.8.2-1.2.3-.1.5.2.6.4.4 1.5.9 2.9 1.2 4.4 0 .1 0 .3-.1.4h-.7c-.6-1.3-1-2.6-1.2-4z"/>
    <path fill="#772DD0" d="M8 13.5c.6 1.3 1 2.6 1.1 4h-.5c-.7-1-.8-2.3-1.1-3.5 0-.2.1-.3.2-.5H8z"/>
    <path fill="#8029D2" d="M6.5 13.5H7c.2.2.4.3.4.6.3.9.5 1.9.8 2.8.1.2.1.5-.1.7h-.5c-.5-.4-.6-1-.7-1.6-.1-.8-.7-1.6-.4-2.5z"/>
    <path fill="#7B2BD1" d="M8.1 17.5c-.3-1.3-.7-2.7-1-4h.7c0 1.2.6 2.3.8 3.5 0 .2.1.3.1.5h-.6z"/>
    <path fill="#8527D3" d="M6.5 13.5c.3 1.3.7 2.7 1 4H7c-.2-.1-.3-.2-.4-.4-.3-1-.5-2-.8-2.9 0-.3 0-.5.2-.7h.5z"/>
    <path fill="#6136CB" d="M8.2 7.3V5.4c.6 0 .7.5.8 1l2.4 9.3c.2.6.6 1.2.4 1.9h-.7c-.6-1.2-.7-2.4-1-3.7-.6-2.1-1.2-4.2-1.6-6.3-.1-.2-.2-.3-.3-.3z"/>
    <path fill="#6634CC" d="M8.2 7.3c.4.1.4.4.5.7.8 2.9 1.5 5.9 2.3 8.8.1.2 0 .5.1.7h-.5c-.3-.3-.4-.7-.5-1.1-.5-2.1-1.2-4.2-1.6-6.4 0-.1-.1-.3-.2-.4-.1-.7-.1-1.5-.1-2.3z"/>
    <path fill="#6C32CE" d="M8.2 9.7c.4 0 .4.3.5.5.6 2.4 1.2 4.9 1.8 7.3h-.7c-.4-1.5-.8-3-1.2-4.6-.1-.3-.1-.5-.4-.6V9.7z"/>
    <path fill="#394BC1" d="M19.4 1.5c-.1-.3-.1-.7-.2-1h.9c.2.4.4.8.9 1v.1h-1.4c-.1 0-.1-.1-.2-.1z"/>
    <path fill="#3052BE" d="M21 1.5c-.8.1-.9-.4-.9-1h.7c0 .3.2.6.2 1z"/>
    <path fill="#9620D7" d="M4 12.1c.2.4-.4 1.2.5 1.4.6 1.3 1 2.6 1 4h-.7C3.6 13.1 2.5 8.7 1.3 4.3c0-.1-.1-.3-.2-.4.4 0 .5.3.5.6.8 2.3 1.4 4.6 2 6.8.1.3.1.7.4.8z"/>
    <path fill="#9023D6" d="M5.6 17.5c-.5-1.3-.8-2.7-1-4h.9c.3 1.3 1 2.6.9 4h-.8z"/>
    <path fill="#8925D4" d="M6.3 17.5c-.3-1.3-.9-2.6-.9-4h.5c.3 1.3.7 2.7 1 4h-.6z"/>
    <path fill="#543CC8" d="M12.5 13.5c.3 1.3.7 2.7 1 4h-.7c-.3-.2-.4-.5-.5-.8-.9-3.6-1.8-7.2-2.8-10.8-.1-.3-.3-.7-.1-1.1.2-.1.4-.1.6 0 .4.2.4.6.5 1 .6 2 1 4 1.6 6 .2.6-.3 1.3.4 1.7z"/>
    <path fill="#593AC9" d="M9.5 4.8c1.1 4.2 2.2 8.5 3.3 12.7h-.5c-.5-.5-.6-1.1-.7-1.7-.9-3.4-1.8-6.7-2.7-10.1-.1-.3-.3-.7.2-1 .1 0 .3 0 .4.1z"/>
    <path fill="#5D38CA" d="M9.1 4.8c-.2.1-.1.3-.1.5 1.1 4.1 2.2 8.1 3.2 12.2h-.5c-1-3.8-2-7.5-3-11.3-.1-.4-.2-.7-.6-.9 0-.9.6-.6 1-.5z"/>
    <path fill="#2451BD" d="M16.3 7.6c.5.4.5 1.1.7 1.6.6 2.7 1.3 5.3 2 7.9 0 .1 0 .3.1.4h-.7c-.3-.2-.4-.7-.5-1-.6-2.1-1-4.2-1.7-6.2.1-.9-.1-1.8.1-2.7z"/>
    <path fill="#2B4EBF" d="M16.3 10.4c.6.4.5 1 .6 1.5.5 1.9 1 3.7 1.4 5.6h-.9s0-.1-.1-.2c-.8-2.3-1.4-4.5-1-6.9z"/>
    <path fill="#324AC1" d="M16.3 10.4c-.3 2.3.6 4.5 1.1 6.6 0 .2.1.3.1.5h-.9c-.3-1.3-.7-2.7-1-4 .5 0 .5-.3.5-.8V7.4c0-.1.1-.1.1 0v.2c.1.9.1 1.9.1 2.8z"/>
    <path fill="#2B4EBF" d="M16.3 7.4c-.1-.2-.1-.3-.1-.5 0-2.4 0-2.4 2.4-2.2.1.1 0 .2-.1.2-.2.1-.4 0-.6-.1H17c-.7-.1-.7.3-.7.7v1.9z"/>
    <path fill="#4B40C6" d="M12.1 4.8c.1 1.6.1 3.3 0 4.9-.4.1-.6-.3-.6-.6-.3-1.3-.7-2.6-1-3.9-.1-.2-.1-.4.1-.5.5 0 1-.1 1.5.1z"/>
    <path fill="#4F3EC7" d="M10.5 4.8c.3 1.3.7 2.7 1 4 .1.3.2.7.5.9v2.1c-.7-.7-.6-1.6-.9-2.5-.5-1.5-.8-3-1.2-4.5.3-.1.5-.1.6 0z"/>
    <path fill="#0F63B6" d="M18.6 4.8c1.6-.2 1.6-.2 1.6 1.3v6.7c-.3-.2-.2-.5-.2-.8-.4-1.3-.2-2.6-.3-3.8V6.8c.1-1-.1-1.7-1.1-2z"/>
    <path fill="#4D48C4" d="M10.5 4.8H9.2v-.1c1 0 2-.2 2.9.1h-1.6z"/>
    <path fill="#0C5BB8" d="M18.6 4.8h.4c.8-.1 1 .2 1 1-.1 2 0 4.1-.1 6.2-.5-.7-.6-1.6-.8-2.4l-1.2-4.8h.7z"/>
</svg>
