<svg xmlns="http://www.w3.org/2000/svg" width="45" height="18">
    <path fill="#00EF8B" d="M9 18A9 9 0 1 0 9 0a9 9 0 0 0 0 18Z"/>
    <path fill="#fff" d="M12.95 7.594h-2.542v2.541h2.541V7.594Z"/>
    <path fill="#fff" d="M7.868 11.088a.954.954 0 1 1-.954-.954h.954v-2.54h-.954a3.494 3.494 0 1 0 3.494 3.494v-.954h-2.54v.954Zm3.493-4.765h2.859V3.78h-2.86a3.497 3.497 0 0 0-3.493 3.494v.319h2.54v-.319a.954.954 0 0 1 .954-.952Z"/>
    <path fill="#16FF99" d="M7.868 10.133h2.54v-2.54h-2.54v2.54Z"/>
</svg>
